<?xml version="1.0" encoding="UTF-8" standalone="no"?>
<svg
   xmlns:dc="http://purl.org/dc/elements/1.1/"
   xmlns:cc="http://creativecommons.org/ns#"
   xmlns:rdf="http://www.w3.org/1999/02/22-rdf-syntax-ns#"
   xmlns:svg="http://www.w3.org/2000/svg"
   xmlns="http://www.w3.org/2000/svg"
   xmlns:sodipodi="http://sodipodi.sourceforge.net/DTD/sodipodi-0.dtd"
   xmlns:inkscape="http://www.inkscape.org/namespaces/inkscape"
   version="1.1"
   id="svg2"
   xml:space="preserve"
   width="470.07492"
   height="157.58667"
   viewBox="0 0 470.07492 157.58667"
   sodipodi:docname="sandehusoghytterlogo.svg"
   inkscape:version="1.0.1 (3bc2e813f5, 2020-09-07)"><metadata
     id="metadata8"><rdf:RDF><cc:Work
         rdf:about=""><dc:format>image/svg+xml</dc:format><dc:type
           rdf:resource="http://purl.org/dc/dcmitype/StillImage" /><dc:title></dc:title></cc:Work></rdf:RDF></metadata><defs
     id="defs6"><clipPath
       clipPathUnits="userSpaceOnUse"
       id="clipPath18"><path
         d="M 0,595.276 H 595.276 V 0 H 0 Z"
         id="path16" /></clipPath></defs><sodipodi:namedview
     pagecolor="#ffffff"
     bordercolor="#666666"
     borderopacity="1"
     objecttolerance="10"
     gridtolerance="10"
     guidetolerance="10"
     inkscape:pageopacity="0"
     inkscape:pageshadow="2"
     inkscape:window-width="1650"
     inkscape:window-height="899"
     id="namedview4"
     showgrid="false"
     fit-margin-top="0"
     fit-margin-left="0"
     fit-margin-right="0"
     fit-margin-bottom="0"
     inkscape:zoom="1.2699991"
     inkscape:cx="233.88521"
     inkscape:cy="111.60173"
     inkscape:window-x="1144"
     inkscape:window-y="305"
     inkscape:window-maximized="0"
     inkscape:current-layer="g10" /><g
     id="g10"
     inkscape:groupmode="layer"
     inkscape:label="SandeHusoghytterLogoPMS"
     transform="matrix(1.3333333,0,0,-1.3333333,-162.96546,508.45239)"><g
       id="g12"><g
         id="g14"
         clip-path="url(#clipPath18)"><g
           id="g20"
           transform="translate(122.2241,316.8142)"><path
             d="m 0,0 4.267,9.578 c 5.311,-4.267 13.75,-7.303 21.904,-7.303 10.336,0 14.698,3.698 14.698,8.63 0,14.317 -39.447,4.931 -39.447,29.584 0,10.716 8.535,19.818 26.741,19.818 7.965,0 16.309,-2.085 22.093,-5.877 l -3.887,-9.578 c -5.974,3.508 -12.516,5.215 -18.301,5.215 -10.241,0 -14.413,-3.984 -14.413,-9.009 0,-14.128 39.351,-4.931 39.351,-29.299 C 53.006,1.138 44.377,-7.965 26.171,-7.965 15.836,-7.965 5.5,-4.742 0,0"
             style="fill:#f28b00;fill-opacity:1;fill-rule:nonzero;stroke:none"
             id="path22" /></g><g
           id="g24"
           transform="translate(328.8564,376.1736)"><path
             d="M 0,0 V -66.376 H -10.146 L -46.748,-21.43 V -66.376 H -58.98 V 0 h 10.146 l 36.602,-44.946 V 0 Z"
             style="fill:#f28b00;fill-opacity:1;fill-rule:nonzero;stroke:none"
             id="path26" /></g><g
           id="g28"
           transform="translate(375.126,320.2287)"><path
             d="M 0,0 C 14.792,0 24.37,9.007 24.37,22.757 24.37,36.506 14.792,45.515 0,45.515 H -16.119 V 0 Z M -28.447,55.945 H 0.568 c 21.527,0 36.223,-13.276 36.223,-33.188 0,-19.913 -14.696,-33.189 -36.223,-33.189 h -29.015 z"
             style="fill:#f28b00;fill-opacity:1;fill-rule:nonzero;stroke:none"
             id="path30" /></g><g
           id="g32"
           transform="translate(474.7803,320.133)"><path
             d="M 0,0 V -10.336 H -49.782 V 56.041 H -1.327 V 45.705 H -37.456 V 28.447 H -5.404 V 18.301 H -37.456 V 0 Z"
             style="fill:#f28b00;fill-opacity:1;fill-rule:nonzero;stroke:none"
             id="path34" /></g><g
           id="g36"
           transform="translate(202.498,348.9563)"><path
             d="M 0,0 18.533,16.225 37.064,0 V -39.159 H 49.221 V 5.513 L 18.533,32.383 -12.156,5.513 V 2.757 -39.159 H 0 Z"
             style="fill:#f28b00;fill-opacity:1;fill-rule:nonzero;stroke:none"
             id="path38" /></g><path
           d="m 226.108,332.746 h -10.154 v 10.155 h 10.154 z"
           style="fill:#f28b00;fill-opacity:1;fill-rule:nonzero;stroke:none"
           id="path40" /><g
           id="g42"
           transform="translate(204.8398,279.799)"><path
             d="m 0,0 v -16.416 h -3.047 v 7.035 h -8.49 v -7.035 h -3.047 V 0 h 3.047 v -6.778 h 8.49 V 0 Z"
             style="fill:#f28b00;fill-opacity:1;fill-rule:nonzero;stroke:none"
             id="path44" /></g><g
           id="g46"
           transform="translate(210.856,270.5363)"><path
             d="M 0,0 V 9.263 H 3.049 V 0.117 c 0,-3.378 1.524,-4.831 4.174,-4.831 2.65,0 4.151,1.453 4.151,4.831 v 9.146 h 3.001 V 0 C 14.375,-4.784 11.678,-7.387 7.2,-7.387 2.697,-7.387 0,-4.784 0,0"
             style="fill:#f28b00;fill-opacity:1;fill-rule:nonzero;stroke:none"
             id="path48" /></g><g
           id="g50"
           transform="translate(229.8628,265.1184)"><path
             d="M 0,0 1.054,2.368 C 2.367,1.314 4.455,0.563 6.472,0.563 c 2.555,0 3.634,0.915 3.634,2.134 0,3.541 -9.755,1.22 -9.755,7.316 0,2.65 2.111,4.901 6.613,4.901 1.97,0 4.034,-0.517 5.464,-1.453 l -0.962,-2.369 c -1.477,0.868 -3.096,1.29 -4.525,1.29 -2.534,0 -3.566,-0.986 -3.566,-2.229 0,-3.493 9.733,-1.219 9.733,-7.245 0,-2.626 -2.133,-4.877 -6.636,-4.877 C 3.915,-1.969 1.36,-1.173 0,0"
             style="fill:#f28b00;fill-opacity:1;fill-rule:nonzero;stroke:none"
             id="path52" /></g><g
           id="g54"
           transform="translate(269.4077,271.5901)"><path
             d="m 0,0 c 0,3.354 -2.462,5.77 -5.77,5.77 -3.305,0 -5.767,-2.416 -5.767,-5.77 0,-3.353 2.462,-5.768 5.767,-5.768 C -2.462,-5.768 0,-3.353 0,0 m -14.609,0 c 0,4.854 3.752,8.442 8.839,8.442 5.09,0 8.842,-3.563 8.842,-8.442 0,-4.876 -3.752,-8.44 -8.842,-8.44 -5.087,0 -8.839,3.586 -8.839,8.44"
             style="fill:#f28b00;fill-opacity:1;fill-rule:nonzero;stroke:none"
             id="path56" /></g><g
           id="g58"
           transform="translate(288.6709,271.7785)"><path
             d="m 0,0 h 2.886 v -6.543 c -1.712,-1.383 -4.105,-2.086 -6.427,-2.086 -5.087,0 -8.839,3.539 -8.839,8.441 0,4.901 3.752,8.442 8.886,8.442 2.744,0 5.042,-0.914 6.591,-2.673 L 1.174,3.704 c -1.29,1.29 -2.768,1.877 -4.527,1.877 -3.494,0 -5.956,-2.369 -5.956,-5.769 0,-3.329 2.462,-5.768 5.933,-5.768 1.172,0 2.322,0.234 3.376,0.844 z"
             style="fill:#f28b00;fill-opacity:1;fill-rule:nonzero;stroke:none"
             id="path60" /></g><g
           id="g62"
           transform="translate(320.125,279.799)"><path
             d="m 0,0 v -16.416 h -3.047 v 7.035 h -8.49 v -7.035 h -3.047 V 0 h 3.047 v -6.778 h 8.49 V 0 Z"
             style="fill:#f28b00;fill-opacity:1;fill-rule:nonzero;stroke:none"
             id="path64" /></g><g
           id="g66"
           transform="translate(333.3623,269.176)"><path
             d="m 0,0 v -5.793 h -3.047 v 5.745 l -6.449,10.671 h 3.26 l 4.806,-7.998 4.856,7.998 h 3.001 z"
             style="fill:#f28b00;fill-opacity:1;fill-rule:nonzero;stroke:none"
             id="path68" /></g><g
           id="g70"
           transform="translate(346.626,277.219)"><path
             d="M 0,0 H -5.439 V 2.58 H 8.49 V 0 H 3.049 V -13.836 H 0 Z"
             style="fill:#f28b00;fill-opacity:1;fill-rule:nonzero;stroke:none"
             id="path72" /></g><g
           id="g74"
           transform="translate(362.7275,277.219)"><path
             d="M 0,0 H -5.439 V 2.58 H 8.49 V 0 H 3.049 V -13.836 H 0 Z"
             style="fill:#f28b00;fill-opacity:1;fill-rule:nonzero;stroke:none"
             id="path76" /></g><g
           id="g78"
           transform="translate(387.5752,265.9387)"><path
             d="M 0,0 V -2.556 H -12.31 V 13.86 H -0.328 V 11.304 H -9.263 V 7.036 h 7.926 V 4.527 H -9.263 V 0 Z"
             style="fill:#f28b00;fill-opacity:1;fill-rule:nonzero;stroke:none"
             id="path80" /></g><g
           id="g82"
           transform="translate(399.3379,277.219)"><path
             d="M 0,0 H -3.563 V -6.542 H 0 c 2.673,0 4.057,1.219 4.057,3.282 C 4.057,-1.196 2.673,0 0,0 M 4.127,-13.836 0.773,-9.029 C 0.562,-9.052 0.352,-9.052 0.141,-9.052 h -3.704 v -4.784 H -6.612 V 2.58 h 6.753 c 4.314,0 6.987,-2.205 6.987,-5.84 0,-2.485 -1.265,-4.314 -3.493,-5.182 l 3.776,-5.394 z"
             style="fill:#f28b00;fill-opacity:1;fill-rule:nonzero;stroke:none"
             id="path84" /></g></g></g></g></svg>
